<?xml version="1.0" encoding="UTF-8"?>
<svg version="1.1" xmlns="http://www.w3.org/2000/svg" width="272" height="268">
<path d="M0 0 C79.86 0 159.72 0 242 0 C242 16.97617454 237.26701536 23.53657075 226 35 C224.69289062 36.25103516 224.69289062 36.25103516 223.359375 37.52734375 C217.00283563 44.1890812 214.31514195 53.15172292 213.8984375 62.20703125 C214.41002861 73.1275338 220.83634726 81.31220389 228.46875 88.5078125 C237.72749427 97.62367492 243.10949514 107.50790656 243.4375 120.5625 C242.98868849 134.01324499 238.16974936 143.20372296 228.4375 152.5625 C220.25535064 160.46443876 214.51420721 170.11707041 213.84375 181.69921875 C214.4815715 191.85652615 218.58893041 199.1065037 225.48828125 206.359375 C236.65973702 218.10417143 242 224.87299722 242 242 C162.14 242 82.28 242 0 242 C0 227.72445765 4.16551231 221.02423154 13.6171875 210.65234375 C22.30033161 200.98700793 28.43385052 192.88030107 28.2109375 179.4609375 C27.27419609 168.53228769 21.69507274 161.92587172 14.5625 154.125 C3.965789 142.50971813 -1.49604354 132.70614776 -1.19921875 116.97265625 C-0.59083437 104.84075587 6.57407372 96.07431925 15.1875 87.875 C23.2944302 80.04260728 27.22452134 70.49629371 28.375 59.375 C27.12934373 48.16409357 21.30058591 39.96324438 13.5625 32.125 C3.51566667 21.64754776 0 15.01040876 0 0 Z M86 73 C86 103.69 86 134.38 86 166 C114.28429928 166.94513682 114.28429928 166.94513682 139.8125 159.25 C140.90848511 158.72394165 140.90848511 158.72394165 142.02661133 158.18725586 C147.32907681 155.54229081 151.42746985 152.80479418 155 148 C155.53753906 147.38125 156.07507813 146.7625 156.62890625 146.125 C164.23214234 136.45148516 164.68705596 123.17788824 163.5 111.40625 C162.25975492 102.95708042 160.13857032 97.437452 154.5234375 90.91015625 C153 89 153 89 152 86 C130.93784198 71.26332775 112.93937044 73 86 73 Z " fill="#9b1f15" transform="translate(14,13)"/>
<path d="M0 0 C2.83809156 1.10370227 5.40085966 2.41839545 8 4 C8.60585937 4.34804687 9.21171875 4.69609375 9.8359375 5.0546875 C18.06145792 10.26298646 21.89839774 18.83679229 24.5546875 27.890625 C26.66460011 37.8849479 24.64815153 48.50240467 19.6796875 57.3515625 C13.28967727 66.39534746 5.44421863 71.70389762 -5.18359375 74.59375 C-9.41284934 75.20379519 -13.60797511 75.14374242 -17.875 75.125 C-19.18404297 75.13080078 -19.18404297 75.13080078 -20.51953125 75.13671875 C-33.88337726 75.11662274 -33.88337726 75.11662274 -36 73 C-36.09960006 70.80733845 -36.12799756 68.61142598 -36.12939453 66.41650391 C-36.13114685 65.72867325 -36.13289917 65.04084259 -36.13470459 64.33216858 C-36.13912374 62.04694126 -36.13618427 59.76179068 -36.1328125 57.4765625 C-36.13348568 55.89334091 -36.13445582 54.31011943 -36.13571167 52.72689819 C-36.13718885 49.40288309 -36.13503401 46.0788948 -36.13037109 42.75488281 C-36.12468307 38.4920112 -36.12794679 34.22920267 -36.13394356 29.96633339 C-36.13755654 26.69442265 -36.13640702 23.42252688 -36.13381577 20.15061569 C-36.13314806 18.5789222 -36.13396948 17.00722735 -36.13629532 15.43553543 C-36.13883288 13.23774877 -36.13496522 11.04006421 -36.12939453 8.84228516 C-36.12859894 7.59065582 -36.12780334 6.33902649 -36.12698364 5.04946899 C-36 2 -36 2 -35 -1 C-26.64363452 -5.17818274 -8.66090168 -2.74727526 0 0 Z " fill="#9b1f15" transform="translate(144,96)"/>
<path d="M0 0 C3.45595924 1.53598188 6.10076012 3.58396677 9 6 C10.3921875 7.0209375 10.3921875 7.0209375 11.8125 8.0625 C16.41244646 11.89976104 19.7564306 17.01361719 23 22 C23.86044922 23.25490234 23.86044922 23.25490234 24.73828125 24.53515625 C26 28 26 28 26 41 C-53.86 41 -133.72 41 -216 41 C-216 39.02 -216 37.04 -216 35 C-215.34 35.66 -214.68 36.32 -214 37 C-211.53799658 37.24531397 -209.1820915 37.36650921 -206.71472168 37.40293884 C-205.95946355 37.42147403 -205.20420542 37.44000922 -204.42606068 37.45910609 C-201.89287392 37.51801551 -199.35967138 37.56198148 -196.82617188 37.60522461 C-195.02070027 37.64250417 -193.21523721 37.68019925 -191.40978241 37.71828365 C-170.92965962 38.12791361 -150.44582017 38.22244472 -129.96228218 38.30332303 C-124.51988463 38.32570699 -119.07751037 38.35283068 -113.63513184 38.37937927 C-103.40126235 38.42861804 -93.16737945 38.47380183 -82.93348455 38.51740164 C-71.25198984 38.56737568 -59.57051854 38.62206381 -47.88904667 38.67708123 C-23.9260531 38.78984002 0.03696307 38.8968956 24 39 C23.21849891 36.60291925 22.43275033 34.2073716 21.64453125 31.8125 C21.42543091 31.13896484 21.20633057 30.46542969 20.98059082 29.77148438 C17.76115743 20.02103052 13.89440196 14.43247567 6 8 C3.89334487 6.06704371 1.95065548 4.09695465 0 2 C0 1.34 0 0.68 0 0 Z " fill="#9b1f15" transform="translate(230,214)"/>
<path d="M0 0 C79.86 0 159.72 0 242 0 C242 13 242 13 241 15 C240.34 15 239.68 15 239 15 C238.67 11.04 238.34 7.08 238 3 C160.12 3 82.24 3 2 3 C2.33 3.66 2.66 4.32 3 5 C3.13415472 7.6723621 3.04318541 10.32250488 3 13 C3.99 13.33 4.98 13.66 6 14 C7.421875 15.92578125 7.421875 15.92578125 8.75 18.3125 C9.19859375 19.09238281 9.6471875 19.87226562 10.109375 20.67578125 C11.11611108 23.30300917 10.97226335 24.40927388 10 27 C4.93774609 22.66092522 2.50058009 18.21572764 0 12 C0 8.04 0 4.08 0 0 Z " fill="#9b1f15" transform="translate(14,13)"/>
<path d="M0 0 C2.93511672 1.12704645 5.29157254 2.34484989 8 4 C8.495 5.485 8.495 5.485 9 7 C7.41532272 6.71572583 5.8322943 6.42225182 4.25 6.125 C3.36828125 5.96257812 2.4865625 5.80015625 1.578125 5.6328125 C-1 5 -1 5 -2.80151367 3.98413086 C-5.55319594 2.75236726 -7.74392428 2.69596413 -10.75390625 2.62109375 C-11.85541016 2.58693359 -12.95691406 2.55277344 -14.09179688 2.51757812 C-15.23712891 2.49115234 -16.38246094 2.46472656 -17.5625 2.4375 C-19.83474173 2.37760356 -22.10688903 2.31397476 -24.37890625 2.24609375 C-25.3851001 2.22216553 -26.39129395 2.1982373 -27.42797852 2.17358398 C-30 2 -30 2 -33 1 C-32.99476318 1.68884277 -32.98952637 2.37768555 -32.98413086 3.08740234 C-32.83414441 26.40554917 -33.36686455 49.69185944 -34 73 C-33.28980713 72.93941406 -32.57961426 72.87882812 -31.84790039 72.81640625 C-28.58641536 72.54039157 -25.32447517 72.27015799 -22.0625 72 C-20.94552734 71.90460938 -19.82855469 71.80921875 -18.67773438 71.7109375 C-12.42573608 71.19757694 -6.27276963 70.89356913 0 71 C-3.20924506 74.41275259 -5.47279911 74.89845559 -10.16308594 75.08691406 C-12.73473935 75.13501104 -15.30294424 75.13629746 -17.875 75.125 C-19.18404297 75.13080078 -19.18404297 75.13080078 -20.51953125 75.13671875 C-33.88337726 75.11662274 -33.88337726 75.11662274 -36 73 C-36.09960006 70.80733845 -36.12799756 68.61142598 -36.12939453 66.41650391 C-36.13114685 65.72867325 -36.13289917 65.04084259 -36.13470459 64.33216858 C-36.13912374 62.04694126 -36.13618427 59.76179068 -36.1328125 57.4765625 C-36.13348568 55.89334091 -36.13445582 54.31011943 -36.13571167 52.72689819 C-36.13718885 49.40288309 -36.13503401 46.0788948 -36.13037109 42.75488281 C-36.12468307 38.4920112 -36.12794679 34.22920267 -36.13394356 29.96633339 C-36.13755654 26.69442265 -36.13640702 23.42252688 -36.13381577 20.15061569 C-36.13314806 18.5789222 -36.13396948 17.00722735 -36.13629532 15.43553543 C-36.13883288 13.23774877 -36.13496522 11.04006421 -36.12939453 8.84228516 C-36.12859894 7.59065582 -36.12780334 6.33902649 -36.12698364 5.04946899 C-36 2 -36 2 -35 -1 C-26.64395414 -5.17802293 -8.66107437 -2.74881616 0 0 Z " fill="#9b1f15" transform="translate(144,96)"/>
<path d="M0 0 C0.66 0 1.32 0 2 0 C2 30.69 2 61.38 2 93 C28.86171321 92.514837 28.86171321 92.514837 55 89 C54.67 89.66 54.34 90.32 54 91 C53.34 91 52.68 91 52 91 C52 91.66 52 92.32 52 93 C51.360625 93.12375 50.72125 93.2475 50.0625 93.375 C49.0415625 93.684375 49.0415625 93.684375 48 94 C47.67 94.66 47.34 95.32 47 96 C40.32465139 95.88270365 33.64947491 95.75786785 26.97436523 95.62768555 C24.70161164 95.58426335 22.42882387 95.54259384 20.15600586 95.50268555 C16.89686768 95.44515881 13.63790269 95.38141448 10.37890625 95.31640625 C9.35599991 95.29969376 8.33309357 95.28298126 7.27919006 95.26576233 C5.86784035 95.2358445 5.86784035 95.2358445 4.42797852 95.20532227 C3.59524918 95.18977798 2.76251984 95.1742337 1.90455627 95.15821838 C0 95 0 95 -1 94 C-1.10056691 91.11393984 -1.13615375 88.25177425 -1.12939453 85.36523438 C-1.13114685 84.45961258 -1.13289917 83.55399078 -1.13470459 82.6209259 C-1.13912454 79.61184807 -1.13618461 76.60282848 -1.1328125 73.59375 C-1.1334855 71.51249175 -1.13445549 69.43123357 -1.13571167 67.34997559 C-1.13718884 62.98184462 -1.13503348 58.61373407 -1.13037109 54.24560547 C-1.1246738 48.63285447 -1.1279527 43.02015128 -1.13394356 37.40740204 C-1.13754866 33.10788611 -1.13641082 28.80838162 -1.13381577 24.50886536 C-1.13314636 22.43870539 -1.1339754 20.3685444 -1.13629532 18.29838562 C-1.13882102 15.41048414 -1.13498242 12.52266122 -1.12939453 9.63476562 C-1.13141876 8.77031326 -1.13344299 7.9058609 -1.13552856 7.01521301 C-1.11426237 1.11426237 -1.11426237 1.11426237 0 0 Z " fill="#9b1f15" transform="translate(98,86)"/>
<path d="M0 0 C79.2 0 158.4 0 240 0 C240 4.62 240 9.24 240 14 C239.34 14 238.68 14 238 14 C237.67 10.04 237.34 6.08 237 2 C158.79 1.67 80.58 1.34 0 1 C0 0.67 0 0.34 0 0 Z " fill="#9b1f15" transform="translate(15,14)"/>
<path d="M0 0 C5.28771163 1.39968837 8.08282622 4.57228966 11 9 C15.1761358 16.94108284 16.27948794 25.14276956 15 34 C12.12177833 42.91705658 6.51163203 49.45457057 0 56 C-0.70382813 56.71800781 -1.40765625 57.43601563 -2.1328125 58.17578125 C-3.7405995 59.7998414 -5.36056047 61.40800406 -7 63 C-7.68359375 61.19140625 -7.68359375 61.19140625 -8 59 C-6.84765625 57.46484375 -6.84765625 57.46484375 -5.0625 55.9375 C3.65191243 47.76446389 9.82036242 38.65936236 10.375 26.5 C10.03141976 18.3829169 7.57261917 11.9480871 2.3046875 5.7890625 C0.89436397 3.8551458 0.42212 2.33710342 0 0 Z " fill="#9b1f15" transform="translate(32,168)"/>
<path d="M0 0 C0.99 0.33 1.98 0.66 3 1 C1.86196347 4.03476409 0.54430592 6.84666858 -1 9.6875 C-5.91337716 19.60626514 -4.98145689 29.3100777 -4 40 C-7 39 -7 39 -8.16015625 36.9375 C-11.04819996 26.83606339 -9.43411956 16.15755363 -5.484375 6.63671875 C-3.95658832 3.92288715 -2.3062093 2.07460281 0 0 Z " fill="#9b1f15" transform="translate(233,49)"/>
<path d="M0 0 C3.63654342 2.42436228 3.80976765 3.91920336 5 8 C5.33 8.66 5.66 9.32 6 10 C6.18854993 15.93932269 5.82470144 21.70916098 5.21875 27.6171875 C4.95429057 30.09910086 4.95429057 30.09910086 5 33 C3.02 33.495 3.02 33.495 1 34 C1 34.66 1 35.32 1 36 C0.34 36 -0.32 36 -1 36 C-0.84402344 35.07703125 -0.68804687 34.1540625 -0.52734375 33.203125 C1.14931285 21.96619469 0.85741167 11.30856476 0 0 Z " fill="#9b1f15" transform="translate(176,116)"/>
<path d="M0 0 C0.66 0 1.32 0 2 0 C2.25203387 5.54474514 2.25203387 5.54474514 1.01171875 7.78515625 C-1.85276617 14.05605567 -0.63820326 23.00092489 1.5 29.375 C1.995 30.57125 2.49 31.7675 3 33 C2.34 33.66 1.68 34.32 1 35 C-2.95672183 32.36218544 -3.01316381 30.58670341 -4 26 C-4.20806919 23.32482467 -4.33340762 20.79377667 -4.3125 18.125 C-4.31048584 17.42753662 -4.30847168 16.73007324 -4.30639648 16.01147461 C-4.2063486 10.85511443 -3.90494096 3.90494096 0 0 Z " fill="#9b1f15" transform="translate(17,116)"/>
<path d="M0 0 C0.66 0 1.32 0 2 0 C2.08679642 3.99263523 1.91844002 7.72997797 1.375 11.6875 C0.57459374 18.94674008 2.17303476 25.99109701 4 33 C1.4480151 32.02455123 0.24378111 31.46482144 -1.046875 29.00390625 C-2.88114384 22.63491721 -3.62571586 16.63018147 -3 10 C-2.67 9.67 -2.34 9.34 -2 9 C-2.020625 7.865625 -2.04125 6.73125 -2.0625 5.5625 C-2 2 -2 2 0 0 Z " fill="#9b1f15" transform="translate(227,180)"/>
<path d="M0 0 C0.66 0 1.32 0 2 0 C2.6875 2.25390625 2.6875 2.25390625 3 5 C1.8125 7.02734375 1.8125 7.02734375 0 8.9375 C-0.64839844 9.62199219 -1.29679687 10.30648437 -1.96484375 11.01171875 C-6.64302871 15.58215281 -11.47723377 19.497758 -17 23 C-17.66 22.67 -18.32 22.34 -19 22 C-19 21.34 -19 20.68 -19 20 C-17.33333333 19 -15.66666667 18 -14 17 C-9.20233996 12.57139073 -4.60003631 7.68577523 -1.25 2.0625 C-0.8375 1.381875 -0.425 0.70125 0 0 Z " fill="#9b1f15" transform="translate(173,153)"/>
<path d="M0 0 C0.33 0 0.66 0 1 0 C2.49253005 6.59404672 3.58945609 14.26533393 0.8828125 20.625 C-0.31851127 22.52539919 -1.54893318 24.28463172 -3 26 C-3.99 25.67 -4.98 25.34 -6 25 C-5.690625 24.29488281 -5.38125 23.58976562 -5.0625 22.86328125 C-3.97637682 19.93633902 -3.45272861 17.27171367 -3 14.1875 C-2.24829557 9.36108025 -1.26934828 4.7147222 0 0 Z " fill="#9b1f15" transform="translate(44,68)"/>
<path d="M0 0 C0.99 0 1.98 0 3 0 C3 2.64 3 5.28 3 8 C3.99 8.33 4.98 8.66 6 9 C7.421875 10.92578125 7.421875 10.92578125 8.75 13.3125 C9.19859375 14.09238281 9.6471875 14.87226562 10.109375 15.67578125 C11.11611108 18.30300917 10.97226335 19.40927388 10 22 C4.85460932 17.58966513 0.65966217 11.65061828 -0.3125 4.796875 C-0.3125 2.875 -0.3125 2.875 0 0 Z " fill="#9b1f15" transform="translate(14,18)"/>
<path d="M0 0 C5.50719921 3.90510489 10.35827355 8.09717644 15 13 C14.67 13.66 14.34 14.32 14 15 C11.20972027 14.91793295 9.49501473 14.48108848 7.47265625 12.515625 C6.4408185 11.28687165 5.4252874 10.04425627 4.42578125 8.7890625 C2.76155709 6.70080315 0.92336124 4.8493858 -1 3 C-0.67 2.01 -0.34 1.02 0 0 Z " fill="#9b1f15" transform="translate(229,90)"/>
<path d="M0 0 C0.66 0.33 1.32 0.66 2 1 C-0.26027246 8.4266095 -5.42862061 12.80492391 -11 18 C-11.66 17.67 -12.32 17.34 -13 17 C-12.75 15.125 -12.75 15.125 -12 13 C-11.37738281 12.71898437 -10.75476563 12.43796875 -10.11328125 12.1484375 C-7.41298304 10.68099263 -6.78091748 9.23117217 -5.4375 6.5 C-3.79529384 3.18328199 -3.18382429 2.12254952 0 0 Z " fill="#9b1f15" transform="translate(249,152)"/>
<path d="M0 0 C0.66 0 1.32 0 2 0 C2.58974578 9.09191414 1.08745074 16.45437743 -2 25 C-2.66 25 -3.32 25 -4 25 C-4.19294408 20.17639811 -3.75747614 16.50353262 -2 12 C-1.34 12 -0.68 12 0 12 C0 8.04 0 4.08 0 0 Z " fill="#9b1f15" transform="translate(167,126)"/>
<path d="M0 0 C0.66 0.33 1.32 0.66 2 1 C0.63981615 4.97483779 -1.13171283 7.63594199 -3.9375 10.75 C-4.62714844 11.52859375 -5.31679687 12.3071875 -6.02734375 13.109375 C-8 15 -8 15 -11 16 C-11.33 15.01 -11.66 14.02 -12 13 C-10.71034824 11.62437146 -9.37310707 10.29233607 -8 9 C-7.34 9 -6.68 9 -6 9 C-5.938125 8.2575 -5.87625 7.515 -5.8125 6.75 C-4.75814862 3.1814261 -3.00090227 2.07754772 0 0 Z " fill="#9b1f15" transform="translate(248,33)"/>
<path d="M0 0 C1.48046875 1.05078125 1.48046875 1.05078125 3 3 C3.83411002 10.56080375 3.72055288 18.8406503 1 26 C0.01 26.33 -0.98 26.66 -2 27 C-2.125 21.25 -2.125 21.25 -1 19 C-0.34 19 0.32 19 1 19 C1 14.05 1 9.1 1 4 C0.34 4 -0.32 4 -1 4 C-0.67 2.68 -0.34 1.36 0 0 Z " fill="#9b1f15" transform="translate(254,123)"/>
<path d="M0 0 C1.32 0.33 2.64 0.66 4 1 C-2.29418357 8.89476633 -2.29418357 8.89476633 -7 11 C-8.32 11 -9.64 11 -11 11 C-11.33 10.01 -11.66 9.02 -12 8 C-10.73308493 7.32591692 -9.46129251 6.66099503 -8.1875 6 C-7.47980469 5.62875 -6.77210938 5.2575 -6.04296875 4.875 C-4 4 -4 4 -1 4 C-0.67 2.68 -0.34 1.36 0 0 Z " fill="#9b1f15" transform="translate(156,156)"/>
<path d="M0 0 C2.57334835 0.37390532 3.73073547 0.6967231 5.484375 2.671875 C9.69081977 9.57875345 9.69081977 9.57875345 9 14 C5.06360824 12.68786941 4.71346403 11.17198478 2.8125 7.5625 C2.01779297 6.07943359 2.01779297 6.07943359 1.20703125 4.56640625 C0 2 0 2 0 0 Z " fill="#9b1f15" transform="translate(245,108)"/>
<path d="M0 0 C0 4.14673024 -1.75777937 5.52949719 -4.375 8.6875 C-5.18710937 9.68136719 -5.99921875 10.67523438 -6.8359375 11.69921875 C-7.55007812 12.45847656 -8.26421875 13.21773437 -9 14 C-9.66 14 -10.32 14 -11 14 C-10.47315196 9.92760702 -9.36950851 7.78401363 -6.625 4.75 C-6.01914062 4.06421875 -5.41328125 3.3784375 -4.7890625 2.671875 C-3 1 -3 1 0 0 Z " fill="#9b1f15" transform="translate(31,101)"/>
<path d="M0 0 C0.66 0.33 1.32 0.66 2 1 C0.36041242 6.23272633 -1.38952035 11.15196636 -4 16 C-4.66 16 -5.32 16 -6 16 C-6.77843805 9.9281832 -4.17016902 5.93714848 -1 1 C-0.67 0.67 -0.34 0.34 0 0 Z " fill="#9b1f15" transform="translate(21,231)"/>
<path d="M0 0 C6.9119171 5.40932642 6.9119171 5.40932642 8 9 C8.125 12.25 8.125 12.25 8 15 C7.01 15.495 7.01 15.495 6 16 C4.9901527 14.08850332 3.99245505 12.17058431 3 10.25 C2.443125 9.18265625 1.88625 8.1153125 1.3125 7.015625 C0 4 0 4 0 0 Z " fill="#9b1f15" transform="translate(159,109)"/>
<path d="M0 0 C1.79750065 0.56510054 3.58791623 1.15277406 5.375 1.75 C6.87160156 2.23726563 6.87160156 2.23726563 8.3984375 2.734375 C11.29792173 4.1449349 11.95837282 5.01316544 13 8 C11.41532272 7.71572583 9.8322943 7.42225182 8.25 7.125 C7.36828125 6.96257812 6.4865625 6.80015625 5.578125 6.6328125 C3.13052256 6.03203736 1.19400143 5.22002883 -1 4 C-0.67 2.68 -0.34 1.36 0 0 Z " fill="#9b1f15" transform="translate(140,95)"/>
<path d="M0 0 C2.475 0.495 2.475 0.495 5 1 C5 1.66 5 2.32 5 3 C5.721875 2.87625 6.44375 2.7525 7.1875 2.625 C10.45013736 3.06001831 10.8041996 3.55561151 12.8125 6 C13.534375 6.99 14.25625 7.98 15 9 C12 10 12 10 9.3359375 8.671875 C8.35882813 8.03765625 7.38171875 7.4034375 6.375 6.75 C5.39273438 6.12609375 4.41046875 5.5021875 3.3984375 4.859375 C1 3 1 3 0 0 Z " fill="#9b1f15" transform="translate(152,89)"/>
<path d="M0 0 C1.485 0.99 1.485 0.99 3 2 C3 2.66 3 3.32 3 4 C3.66 4 4.32 4 5 4 C5 6.31 5 8.62 5 11 C4.34 11 3.68 11 3 11 C0.15549386 7.28026121 -0.3227506 4.62609198 0 0 Z " fill="#9b1f15" transform="translate(38,52)"/>
<path d="M0 0 C0.99 0.33 1.98 0.66 3 1 C1.98823563 4.40320742 1.35156418 5.75725331 -1.625 7.8125 C-2.40875 8.204375 -3.1925 8.59625 -4 9 C-4.25 6.75 -4.25 6.75 -4 4 C-2 1.6875 -2 1.6875 0 0 Z " fill="#9b1f15" transform="translate(233,170)"/>
<path d="M0 0 C1.32 0.33 2.64 0.66 4 1 C4 1.66 4 2.32 4 3 C4.66 3 5.32 3 6 3 C6.33 4.32 6.66 5.64 7 7 C4.625 6.3125 4.625 6.3125 2 5 C0.6875 2.375 0.6875 2.375 0 0 Z " fill="#9b1f15" transform="translate(27,42)"/>
<path d="M0 0 C0.33 0 0.66 0 1 0 C1 4.95 1 9.9 1 15 C0.01 14.67 -0.98 14.34 -2 14 C-1.67 13.01 -1.34 12.02 -1 11 C-0.77820215 9.10787263 -0.59385985 7.21115528 -0.4375 5.3125 C-0.35371094 4.31863281 -0.26992187 3.32476562 -0.18359375 2.30078125 C-0.12300781 1.54152344 -0.06242188 0.78226562 0 0 Z " fill="#9b1f15" transform="translate(254,127)"/>
</svg>
