<?xml version="1.0" encoding="UTF-8"?>
<svg version="1.1" xmlns="http://www.w3.org/2000/svg" width="512" height="512">
<path d="M0 0 C1.21410049 -0.00619858 2.42820099 -0.01239716 3.67909241 -0.01878357 C6.24007365 -0.02587001 8.80110108 -0.02272843 11.36206055 -0.01000977 C15.26893356 0.0038487 19.17340735 -0.03022991 23.08007812 -0.06835938 C25.57421933 -0.06931071 28.06836352 -0.067451 30.5625 -0.0625 C32.30502296 -0.08238731 32.30502296 -0.08238731 34.08274841 -0.10267639 C39.99964055 -0.03513586 44.82485352 0.26928141 49.69795227 3.8502655 C55.2227225 9.59752891 57.46505554 18.1700078 59.95703125 25.57421875 C60.28071686 26.51620621 60.60440247 27.45819366 60.93789673 28.4287262 C61.6336712 30.45556498 62.32638683 32.48345596 63.01629639 34.51229858 C64.89093446 40.02357792 66.789283 45.52670852 68.68359375 51.03125 C69.0724173 52.16321304 69.46124084 53.29517609 69.86184692 54.46144104 C73.74372232 65.75118921 77.72384018 77.0051526 81.72265625 88.25390625 C83.13719473 92.23681026 84.55112698 96.21992926 85.96484375 100.203125 C86.32002075 101.20365906 86.67519775 102.20419312 87.0411377 103.23504639 C91.3345959 115.33683085 95.59002391 127.45198274 99.84765625 139.56640625 C105.61646182 155.97791381 111.39916612 172.38435132 117.2102356 188.78094482 C118.27132838 191.77735781 119.33018527 194.77455198 120.38842773 197.77197266 C123.28164424 205.96085496 126.18130662 214.14601191 129.17192078 222.29992676 C130.32642274 225.44982156 131.47015781 228.60357415 132.61306763 231.75769043 C133.13408235 233.1850701 133.66076866 234.61039568 134.19381714 236.0333252 C139.68020334 250.67880426 139.68020334 250.67880426 138.34765625 258.56640625 C135.85431122 263.55309632 132.35414676 267.06316099 127.34765625 269.56640625 C123.15613679 269.82492191 118.9627706 269.83748894 114.76391602 269.86157227 C113.37025774 269.87305535 111.97664218 269.8934491 110.58325195 269.9230957 C95.47468243 270.24455463 95.47468243 270.24455463 90.34765625 265.56640625 C85.93698601 258.32741491 83.27262127 250.23153634 80.51953125 242.26171875 C80.08505676 241.02018036 79.65058228 239.77864197 79.20294189 238.4994812 C78.29140579 235.89394672 77.38415152 233.28697943 76.48046875 230.67871094 C75.32410052 227.34122122 74.16030566 224.00638425 72.99375534 220.67244148 C71.87488884 217.47388904 70.75961458 214.27409225 69.64453125 211.07421875 C69.22790222 209.87942902 68.81127319 208.68463928 68.38201904 207.4536438 C67.99781799 206.34503998 67.61361694 205.23643616 67.21777344 204.09423828 C66.87977722 203.1206839 66.54178101 202.14712952 66.19354248 201.14407349 C65.48349425 198.98034507 64.89997165 196.77566785 64.34765625 194.56640625 C32.00765625 194.56640625 -0.33234375 194.56640625 -33.65234375 194.56640625 C-34.64234375 197.86640625 -35.63234375 201.16640625 -36.65234375 204.56640625 C-37.31067468 206.57055938 -37.98220391 208.57048309 -38.67358398 210.56347656 C-39.04084091 211.62447571 -39.40809784 212.68547485 -39.78648376 213.77862549 C-40.1740535 214.88937439 -40.56162323 216.00012329 -40.9609375 217.14453125 C-41.57292747 218.89984161 -41.57292747 218.89984161 -42.19728088 220.69061279 C-43.05572537 223.14837429 -43.91552365 225.60566331 -44.77661133 228.0625 C-46.08983942 231.81639387 -47.39159211 235.57415025 -48.69335938 239.33203125 C-49.53184372 241.72811259 -50.3710129 244.1239544 -51.2109375 246.51953125 C-51.596483 247.63837708 -51.9820285 248.7572229 -52.3792572 249.90997314 C-55.34071774 258.29196809 -58.24568416 265.36307646 -66.65234375 269.56640625 C-70.86164078 269.82459071 -75.07480959 269.83745998 -79.29101562 269.86157227 C-81.38088423 269.87873007 -83.46914709 269.92260844 -85.55859375 269.96679688 C-86.89712382 269.97692936 -88.23566731 269.98544373 -89.57421875 269.9921875 C-91.39324707 270.01406128 -91.39324707 270.01406128 -93.24902344 270.03637695 C-98.48200097 269.31374555 -101.53345848 266.83649223 -104.96484375 262.94140625 C-108.32683302 258.20971764 -108.21488502 254.25821421 -107.65234375 248.56640625 C-106.54899015 244.09747664 -105.01065224 239.81896199 -103.4375 235.49609375 C-102.98970314 234.23054923 -102.54330672 232.96450844 -102.09820557 231.69801331 C-100.90323927 228.30996851 -99.68935821 224.92899377 -98.47177505 221.54902267 C-97.19451105 217.99258027 -95.93542582 214.42971337 -94.67456055 210.86743164 C-92.6366773 205.11646904 -90.58916549 199.36903509 -88.53320312 193.62451172 C-86.03103275 186.63285204 -83.54684023 179.63498401 -81.07421875 172.6328125 C-78.68424462 165.86700577 -76.29113158 159.10235316 -73.89012146 152.3404541 C-68.9494144 138.42563958 -64.04873173 124.49686689 -59.15234375 110.56640625 C-51.25749906 88.11008418 -43.34161055 65.66135441 -35.37062073 43.23193359 C-33.70498846 38.54248159 -32.04751165 33.85038479 -30.40551758 29.15260315 C-29.38891841 26.24700722 -28.36339793 23.3445581 -27.33984375 20.44140625 C-27.00903809 19.48258545 -26.67823242 18.52376465 -26.33740234 17.53588867 C-23.91895235 10.71984995 -21.57274734 5.04661 -14.91383362 1.40209961 C-10.13456345 -0.36399468 -5.03343207 -0.02145315 0 0 Z M14.34765625 57.56640625 C14.11930084 58.21832947 13.89094543 58.87025269 13.65567017 59.54193115 C11.4522089 65.83201625 9.24790075 72.12180406 7.0427494 78.41129684 C5.91039231 81.64107164 4.77831047 84.87094223 3.64697266 88.10107422 C-4.64261961 111.76577617 -4.64261961 111.76577617 -8.54785156 122.66992188 C-8.78198824 123.32386051 -9.01612492 123.97779915 -9.25735664 124.65155411 C-10.38128037 127.78907049 -11.50770164 130.92564948 -12.63705444 134.06121826 C-13.03349152 135.165401 -13.42992859 136.26958374 -13.83837891 137.40722656 C-14.18969879 138.38250305 -14.54101868 139.35777954 -14.90298462 140.36260986 C-15.70599859 142.3362477 -15.70599859 142.3362477 -15.65234375 143.56640625 C4.80765625 143.56640625 25.26765625 143.56640625 46.34765625 143.56640625 C40.54950833 126.17196249 34.68728786 108.83371046 28.53515625 91.56640625 C27.79078731 89.47013314 27.04664651 87.37377901 26.30273438 85.27734375 C23.0177329 76.02798058 19.71196723 66.78726936 16.34765625 57.56640625 C15.68765625 57.56640625 15.02765625 57.56640625 14.34765625 57.56640625 Z " fill="#000000" transform="translate(240.65234375,112.43359375)"/>
<path d="M0 0 C2.0898686 -0.0171578 4.17813146 -0.06103617 6.26757812 -0.10522461 C7.6061082 -0.11535709 8.94465169 -0.12387146 10.28320312 -0.13061523 C12.10223145 -0.15248901 12.10223145 -0.15248901 13.95800781 -0.17480469 C18.05175126 0.3905078 20.15834717 1.72913493 23.36132812 4.29516602 C27.31620861 9.53271045 28.48503435 13.10668388 28.5065918 19.59570312 C28.51297165 20.89813461 28.5193515 22.2005661 28.52592468 23.54246521 C28.52745461 24.96914635 28.5285679 26.39582799 28.52929688 27.82250977 C28.53251272 29.29163139 28.53587703 30.7607527 28.53938293 32.22987366 C28.54537563 35.31585429 28.547223 38.40180693 28.54663086 41.48779297 C28.54652993 45.41123108 28.56010947 49.33448539 28.57740307 53.25788021 C28.5886208 56.29768163 28.590547 59.33744023 28.59002113 62.37726021 C28.59118939 63.8215046 28.59554502 65.26575053 28.6033535 66.70997429 C28.70436995 87.34669109 24.52718966 103.47751017 10.29882812 118.92016602 C-4.48612793 133.15005546 -22.11102082 135.43909765 -41.79492188 135.53344727 C-42.51678177 135.53752279 -43.23864166 135.54159832 -43.9823761 135.54579735 C-47.79765525 135.56654165 -51.61289959 135.58089757 -55.42822266 135.59033203 C-59.34872702 135.60142098 -63.26866775 135.63588224 -67.18897247 135.67550373 C-70.2243144 135.70173073 -73.2595224 135.7100288 -76.29496765 135.71361351 C-77.73975975 135.71845738 -79.18454676 135.7300081 -80.62922668 135.7486515 C-88.68782556 135.8462549 -94.82226991 135.84099167 -101.63867188 131.29516602 C-107.37879828 125.11349142 -106.88793718 119.68256158 -106.93383789 111.65649414 C-106.95099569 109.56662554 -106.99487406 107.47836268 -107.0390625 105.38891602 C-107.04919498 104.05038594 -107.05770935 102.71184245 -107.06445312 101.37329102 C-107.07903564 100.16060547 -107.09361816 98.94791992 -107.10864258 97.69848633 C-106.36156922 92.28851095 -103.89204613 89.26130867 -99.63867188 85.98266602 C-95.05333068 83.40341159 -91.50762125 83.16740564 -86.26538086 83.13745117 C-84.97401718 83.12718903 -83.6826535 83.11692688 -82.35215759 83.10635376 C-81.6649507 83.10291584 -80.9777438 83.09947792 -80.26971245 83.09593582 C-78.11355906 83.08411223 -75.95760286 83.06465348 -73.80152893 83.04281616 C-67.6731723 82.98129671 -61.5448402 82.92707662 -55.41625977 82.89379883 C-51.66377428 82.87287697 -47.91165592 82.83760276 -44.15937996 82.79304123 C-42.73007583 82.77887015 -41.30070685 82.77015628 -39.87133598 82.76698685 C-37.87500096 82.7620891 -35.87874433 82.73734085 -33.88256836 82.71166992 C-32.746577 82.70358307 -31.61058563 82.69549622 -30.44017029 82.68716431 C-27.6800949 82.4903981 -27.6800949 82.4903981 -25.7724762 81.15541077 C-24.1172558 78.43967315 -24.25969711 76.28275972 -24.25390625 73.11474609 C-24.24379517 71.83944534 -24.23368408 70.56414459 -24.2232666 69.25019836 C-24.22482254 68.56860468 -24.22637848 67.88701099 -24.22798157 67.18476295 C-24.23246542 65.04390751 -24.21844173 62.90387636 -24.19958496 60.7631073 C-24.16279305 56.21130713 -24.14910712 51.65959293 -24.13867188 47.10766602 C-24.12656305 41.84798386 -24.10479613 36.58870206 -24.05867004 31.32919884 C-24.04518679 29.23092415 -24.04925622 27.1331667 -24.05407715 25.03486633 C-23.93475316 9.79865543 -23.93475316 9.79865543 -19.18688965 4.75202942 C-13.11040432 -0.508252 -7.63450078 0.04366136 0 0 Z " fill="#000000" transform="translate(471.638671875,364.704833984375)"/>
<path d="M0 0 C1.95364723 -0.00956978 1.95364723 -0.00956978 3.94676208 -0.01933289 C5.37344323 -0.02086281 6.80012487 -0.0219761 8.22680664 -0.02270508 C9.69592827 -0.02592092 11.16504957 -0.02928524 12.63417053 -0.03279114 C15.72015116 -0.03878383 18.8061038 -0.0406312 21.89208984 -0.04003906 C25.81552795 -0.03993813 29.73878227 -0.05351767 33.66217709 -0.07081127 C36.7019785 -0.082029 39.7417371 -0.0839552 42.78155708 -0.08342934 C44.22580148 -0.08459759 45.67004741 -0.08895322 47.11427116 -0.0967617 C67.75098796 -0.19777816 83.88180705 3.97940213 99.32446289 18.20776367 C113.55435233 32.99271972 115.84339452 50.61761261 115.93774414 70.30151367 C115.94181967 71.02337357 115.9458952 71.74523346 115.95009422 72.4889679 C115.97083853 76.30424704 115.98519444 80.11949138 115.99462891 83.93481445 C116.00571786 87.85531881 116.04017912 91.77525954 116.07980061 95.69556427 C116.1060276 98.73090619 116.11432568 101.7661142 116.11791039 104.80155945 C116.12275426 106.24635155 116.13430497 107.69113855 116.15294838 109.13581848 C116.25055177 117.19441736 116.24528855 123.3288617 111.69946289 130.14526367 C105.5177883 135.88539008 100.08685845 135.39452898 92.06079102 135.44042969 C89.97092241 135.45758749 87.88265955 135.50146586 85.79321289 135.5456543 C84.45468282 135.55578678 83.11613933 135.56430115 81.77758789 135.57104492 C79.95855957 135.5929187 79.95855957 135.5929187 78.1027832 135.61523438 C72.69280783 134.86816102 69.66560554 132.39863792 66.38696289 128.14526367 C63.80770847 123.55992248 63.57170251 120.01421304 63.54174805 114.77197266 C63.5314859 113.48060898 63.52122375 112.1892453 63.51065063 110.85874939 C63.50721272 110.17154249 63.5037748 109.48433559 63.5002327 108.77630424 C63.4884091 106.62015086 63.46895035 104.46419465 63.44711304 102.30812073 C63.38559358 96.1797641 63.3313735 90.051432 63.2980957 83.92285156 C63.27717384 80.17036608 63.24189964 76.41824772 63.1973381 72.66597176 C63.18316703 71.23666763 63.17445315 69.80729864 63.17128372 68.37792778 C63.16638598 66.38159276 63.14163772 64.38533613 63.1159668 62.38916016 C63.10787994 61.25316879 63.09979309 60.11717743 63.09146118 58.94676208 C62.89469498 56.1866867 62.89469498 56.1866867 61.55970764 54.27906799 C58.84397003 52.6238476 56.68705659 52.76628891 53.51904297 52.76049805 C51.60609184 52.74533142 51.60609184 52.74533142 49.65449524 52.7298584 C48.97290155 52.73141434 48.29130787 52.73297028 47.58905983 52.73457336 C45.44820439 52.73905721 43.30817324 52.72503353 41.16740417 52.70617676 C36.615604 52.66938485 32.0638898 52.65569892 27.51196289 52.64526367 C22.25228074 52.63315485 16.99299893 52.61138793 11.73349571 52.56526184 C9.63522103 52.55177859 7.53746357 52.55584801 5.43916321 52.56066895 C-9.79704769 52.44134496 -9.79704769 52.44134496 -14.84367371 47.69348145 C-20.10395512 41.61699611 -19.55204176 36.14109258 -19.59570312 28.5065918 C-19.61286093 26.41672319 -19.65673929 24.32846033 -19.70092773 22.23901367 C-19.71106022 20.9004836 -19.71957458 19.56194011 -19.72631836 18.22338867 C-19.74090088 17.01070312 -19.7554834 15.79801758 -19.77050781 14.54858398 C-19.20519532 10.45484054 -17.8665682 8.34824462 -15.30053711 5.14526367 C-10.06299268 1.19038318 -6.48901925 0.02155745 0 0 Z " fill="#000000" transform="translate(384.300537109375,11.854736328125)"/>
<path d="M0 0 C0.72185989 -0.00407553 1.44371979 -0.00815105 2.18745422 -0.01235008 C6.00273337 -0.03309439 9.81797771 -0.0474503 13.63330078 -0.05688477 C17.55380514 -0.06797372 21.47374587 -0.10243498 25.3940506 -0.14205647 C28.42939252 -0.16828346 31.46460053 -0.17658154 34.50004578 -0.18016624 C35.94483787 -0.18501012 37.38962488 -0.19656083 38.83430481 -0.21520424 C46.89290369 -0.31280763 53.02734803 -0.30754441 59.84375 4.23828125 C65.58387641 10.41995584 65.0930153 15.85088569 65.13891602 23.87695312 C65.15607382 25.96682173 65.19995219 28.05508459 65.24414062 30.14453125 C65.25427311 31.48306132 65.26278748 32.82160481 65.26953125 34.16015625 C65.29140503 35.97918457 65.29140503 35.97918457 65.3137207 37.83496094 C64.56664735 43.24493631 62.09712425 46.2721386 57.84375 49.55078125 C53.2584088 52.13003567 49.71269937 52.36604163 44.47045898 52.39599609 C43.17909531 52.40625824 41.88773163 52.41652039 40.55723572 52.42709351 C39.52642537 52.43225039 39.52642537 52.43225039 38.47479057 52.43751144 C36.31863719 52.44933504 34.16268098 52.46879379 32.00660706 52.4906311 C25.87825043 52.55215056 19.74991833 52.60637064 13.62133789 52.63964844 C9.86885241 52.6605703 6.11673405 52.6958445 2.36445808 52.74040604 C0.93515396 52.75457711 -0.49421503 52.76329099 -1.92358589 52.76646042 C-3.91992091 52.77135816 -5.91617754 52.79610642 -7.91235352 52.82177734 C-9.04834488 52.8298642 -10.18433624 52.83795105 -11.35475159 52.84628296 C-14.11482697 53.04304916 -14.11482697 53.04304916 -16.02244568 54.3780365 C-17.67766607 57.09377412 -17.53522476 59.25068755 -17.54101562 62.41870117 C-17.55112671 63.69400192 -17.56123779 64.96930267 -17.57165527 66.2832489 C-17.57009933 66.96484259 -17.5685434 67.64643627 -17.56694031 68.34868431 C-17.56245646 70.48953976 -17.57648014 72.6295709 -17.59533691 74.77033997 C-17.63212882 79.32214014 -17.64581475 83.87385434 -17.65625 88.42578125 C-17.66835882 93.6854634 -17.69012574 98.94474521 -17.73625183 104.20424843 C-17.74973508 106.30252312 -17.74566566 108.40028057 -17.74084473 110.49858093 C-17.86016871 125.73479184 -17.86016871 125.73479184 -22.60803223 130.78141785 C-28.68451756 136.04169926 -34.16042109 135.4897859 -41.79492188 135.53344727 C-43.88479048 135.55060507 -45.97305334 135.59448344 -48.0625 135.63867188 C-49.40103007 135.64880436 -50.73957356 135.65731873 -52.078125 135.6640625 C-53.89715332 135.68593628 -53.89715332 135.68593628 -55.75292969 135.70825195 C-59.84667313 135.14293946 -61.95326905 133.80431234 -65.15625 131.23828125 C-69.11113049 126.00073682 -70.27995623 122.42676339 -70.30151367 115.93774414 C-70.30789352 114.63531265 -70.31427338 113.33288116 -70.32084656 111.99098206 C-70.32237649 110.56430091 -70.32348978 109.13761928 -70.32421875 107.7109375 C-70.32743459 106.24181588 -70.33079891 104.77269457 -70.33430481 103.30357361 C-70.34029751 100.21759298 -70.34214487 97.13164034 -70.34155273 94.0456543 C-70.3414518 90.12221619 -70.35503134 86.19896187 -70.37232494 82.27556705 C-70.38354267 79.23576564 -70.38546887 76.19600704 -70.38494301 73.15618706 C-70.38611126 71.71194267 -70.39046689 70.26769673 -70.39827538 68.82347298 C-70.49929183 48.18675618 -66.32211154 32.05593709 -52.09375 16.61328125 C-37.30879395 2.38339181 -19.68390106 0.09434962 0 0 Z " fill="#000000" transform="translate(82.15625,11.76171875)"/>
<path d="M0 0 C2.0898686 -0.0171578 4.17813146 -0.06103617 6.26757812 -0.10522461 C7.6061082 -0.11535709 8.94465169 -0.12387146 10.28320312 -0.13061523 C12.10223145 -0.15248901 12.10223145 -0.15248901 13.95800781 -0.17480469 C19.36798319 0.57226867 22.39518547 3.04179176 25.67382812 7.29516602 C28.25308255 11.88050721 28.4890885 15.42621665 28.51904297 20.66845703 C28.52930511 21.95982071 28.53956726 23.25118439 28.55014038 24.5816803 C28.5535783 25.2688872 28.55701622 25.95609409 28.56055832 26.66412544 C28.57238191 28.82027883 28.59184066 30.97623503 28.61367798 33.13230896 C28.67519744 39.26066559 28.72941752 45.38899769 28.76269531 51.51757812 C28.78361717 55.27006361 28.81889138 59.02218197 28.86345291 62.77445793 C28.87762399 64.20376206 28.88633786 65.63313104 28.88950729 67.06250191 C28.89440504 69.05883693 28.91915329 71.05509356 28.94482422 73.05126953 C28.9569545 74.75525658 28.9569545 74.75525658 28.96932983 76.4936676 C29.16609604 79.25374299 29.16609604 79.25374299 30.50108337 81.16136169 C33.21682099 82.81658209 35.37373442 82.67414078 38.54174805 82.67993164 C39.8170488 82.69004272 41.09234955 82.70015381 42.40629578 82.71057129 C43.08788946 82.70901535 43.76948315 82.70745941 44.47173119 82.70585632 C46.61258663 82.70137247 48.75261778 82.71539616 50.89338684 82.73425293 C55.44518701 82.77104484 59.99690121 82.78473077 64.54882812 82.79516602 C69.80851028 82.80727484 75.06779208 82.82904176 80.3272953 82.87516785 C82.42556999 82.8886511 84.52332744 82.88458167 86.62162781 82.87976074 C101.85783871 82.99908473 101.85783871 82.99908473 106.90446472 87.74694824 C112.16474614 93.82343357 111.61283278 99.29933711 111.65649414 106.93383789 C111.67365194 109.02370649 111.71753031 111.11196935 111.76171875 113.20141602 C111.77185123 114.53994609 111.7803656 115.87848958 111.78710938 117.21704102 C111.80898315 119.03606934 111.80898315 119.03606934 111.83129883 120.8918457 C111.08422547 126.30182108 108.61470238 129.32902336 104.36132812 132.60766602 C99.78863666 135.17980496 96.26643305 135.42275577 91.0390625 135.44042969 C89.75672729 135.44680954 88.47439209 135.45318939 87.15319824 135.45976257 C85.75382525 135.46129242 84.35445176 135.46240575 82.95507812 135.46313477 C81.50980598 135.46635168 80.06453417 135.46971608 78.6192627 135.47322083 C75.58633675 135.47920758 72.55343925 135.48106145 69.52050781 135.48046875 C65.6654784 135.48036774 61.81063573 135.49395785 57.95565033 135.51124096 C54.96646314 135.52245947 51.97731947 135.52438488 48.9881134 135.52385902 C47.56898868 135.52502675 46.14986237 135.52937931 44.73075867 135.53719139 C24.13977365 135.63983515 8.11838171 131.4051906 -7.26367188 117.23266602 C-21.49356132 102.44770996 -23.78260351 84.82281707 -23.87695312 65.13891602 C-23.88102865 64.41705612 -23.88510418 63.69519623 -23.88930321 62.95146179 C-23.91004751 59.13618265 -23.92440343 55.3209383 -23.93383789 51.50561523 C-23.94492684 47.58511087 -23.9793881 43.66517014 -24.01900959 39.74486542 C-24.04523659 36.70952349 -24.05353466 33.67431549 -24.05711937 30.63887024 C-24.06196324 29.19407814 -24.07351396 27.74929113 -24.09215736 26.30461121 C-24.18976075 18.24601233 -24.18449753 12.11156798 -19.63867188 5.29516602 C-13.45699728 -0.44496039 -8.02606744 0.04590071 0 0 Z " fill="#000000" transform="translate(35.638671875,364.704833984375)"/>
</svg>
